<svg width="52" height="36" viewBox="0 0 52 36" fill="none" xmlns="http://www.w3.org/2000/svg">
<path d="M45.9979 35.353H5.0232C3.69135 35.3514 2.41449 34.8217 1.47278 33.8798C0.53106 32.938 0.00139746 31.6611 0 30.3293V5.02368C0.00139746 3.69183 0.53106 2.41492 1.47278 1.47312C2.41449 0.531309 3.69135 0.00152472 5.0232 0H45.9979C47.3298 0.00152472 48.6066 0.531309 49.5483 1.47312C50.4901 2.41492 51.0197 3.69183 51.0211 5.02368V30.3293C51.0197 31.6611 50.4901 32.938 49.5483 33.8798C48.6066 34.8217 47.3298 35.3514 45.9979 35.353ZM5.0232 1.92C4.20037 1.92089 3.4115 2.24819 2.82972 2.83006C2.24794 3.41193 1.92076 4.20085 1.92 5.02368V30.3293C1.92076 31.1521 2.24794 31.941 2.82972 32.5229C3.4115 33.1048 4.20037 33.4321 5.0232 33.433H45.9979C46.8208 33.4321 47.6096 33.1048 48.1914 32.5229C48.7732 31.941 49.1004 31.1521 49.1011 30.3293V5.02368C49.1004 4.20085 48.7732 3.41193 48.1914 2.83006C47.6096 2.24819 46.8208 1.92089 45.9979 1.92H5.0232Z" fill="black"/>
<path d="M25.5106 23.3257C25.2766 23.3258 25.0506 23.2405 24.8751 23.0857L1.73907 2.66266L3.00963 1.22266L25.5106 21.087L48.0125 1.22506L49.2831 2.66506L26.1471 23.0881C25.9711 23.2425 25.7447 23.327 25.5106 23.3257Z" fill="black"/>
<path d="M1.21698 32.3379L16.7595 14.6288L18.2033 15.896L2.66082 33.6051L1.21698 32.3379Z" fill="black"/>
<path d="M32.8667 15.8777L34.3105 14.6105L49.8534 32.3199L48.4095 33.5871L32.8667 15.8777Z" fill="black"/>
</svg>
